{"title":"The Kinks 1964 The Kinks [Vinyl 24-96 FLAC]","uid":12653455,"size":430101293,"categoryP":"audio","categoryS":"flac","magnet":"?xt=urn:btih:ecd7373af5ef354f07cd61c3d3cd9e585e5bf8dc&amp;dn=+The+Kinks+1964+The+Kinks+%5BVinyl+24-96+FLAC%5D&amp;tr=udp%3A%2F%2Ftracker.leechers-paradise.org%3A6969&amp;tr=udp%3A%2F%2Fzer0day.ch%3A1337&amp;tr=udp%3A%2F%2Fopen.demonii.com%3A1337&amp;tr=udp%3A%2F%2Ftracker.coppersurfer.tk%3A6969&amp;tr=udp%3A%2F%2Fexodus.desync.com%3A6969","seeders":0,"leechers":0,"uploader":"sailorsaint","files":22,"time":1446181081,"description":"The Kinks - Kinks\r\noriginally release 1964, Pye Records (UK) NPL 18096 \r\n\r\nThis reissue:\r\n2015 Sanctuary Records BMG14048V \r\nMastered by Kevin Gray at Cohearent Audio\r\nPressed at United\r\n\r\n\r\ntracks:\r\nA1 - Beautiful Delilah\r\nA2 - So Mystifying\r\nA3 - Just Can't Go To Sleep \r\nA4 - Long Tall Shorty\r\nA5 - I Took My Baby Home\r\nA6 - I'm A Lover Not A Fighter\r\nA7 - You Really Got Me\r\nB1 - Cadillac\r\nB2 - Bald Headed Woman\r\nB3 - Revenge\r\nB4 - Too Much Monkey Business\r\nB5 - I've Been Driving On Bald Mountain\r\nB6 - Stop Your Sobbing\r\nB7 - Got Love If You Want It\r\n\r\n\r\nvinyl LP transfer at 24-bit 96khz\r\ntransfer info:\r\nNitty Gritty Record Master\r\nPS Audio Power Plant Premier\r\nMusic Hall MMF 9.1\r\nsticky hand stylus cleaning\r\nGoldring 1042\r\nEAR 834P (w/ Tungsram 12AX7, Telefunken smooth plates 12AX7, RCA clear top 12AU7)\r\nMytek Stereo192 ADC (analog to digital converter)\r\nTT Weights center weight, Blue Jean LC-1 interconnects\r\nNote - mono record. One channel selected after manual declicking and copied to both channels\r\ntransferred June 2015\r\n\r\n_____________________________________________________\r\n\r\nfoobar2000 1.1.12a / Dynamic Range Meter 1.1.1\r\nlog date: 2015-07-01 14:52:01\r\n\r\n--------------------------------------------------------------------------------\r\nAnalyzed: The Kinks / Kinks {2015 Sanctuary reissue}\r\n--------------------------------------------------------------------------------\r\n\r\nDR         Peak         RMS     Duration Track\r\n--------------------------------------------------------------------------------\r\nDR12      -2.91 dB   -16.75 dB      2:11 01-Beautiful Delilah\r\nDR12      -2.25 dB   -16.18 dB      2:56 02-So Mystifying\r\nDR13      -2.10 dB   -16.94 dB      2:02 03-Just Can't Go To Sleep\r\nDR13      -2.54 dB   -18.04 dB      2:51 04-Long Tall Shorty\r\nDR10      -3.53 dB   -16.45 dB      1:52 05-I Took My Baby Home\r\nDR14      -0.50 dB   -16.99 dB      2:05 06-I'm A Lover Not A Fighter\r\nDR10      -2.18 dB   -14.65 dB      2:17 07-You Really Got Me\r\nDR10      -3.49 dB   -14.75 dB      2:48 08-Cadillac\r\nDR13      -1.81 dB   -19.33 dB      2:44 09-Bald Headed Woman\r\nDR10      -3.49 dB   -16.73 dB      1:32 10-Revenge\r\nDR11      -2.63 dB   -14.82 dB      2:19 11-Too Much Monkey Business\r\nDR11      -3.47 dB   -17.48 dB      2:06 12-I've Been Driving On Bald Mountain\r\nDR13      -3.23 dB   -18.10 dB      2:07 13-Stop Your Sobbing\r\nDR10      -1.72 dB   -16.32 dB      3:52 14-Got Love If You Want It\r\n--------------------------------------------------------------------------------\r\n\r\nNumber of tracks:  14\r\nOfficial DR value: DR12\r\n\r\nSamplerate:        96000 Hz\r\nChannels:          2\r\nBits per sample:   24\r\nBitrate:           1652 kbps\r\nCodec:             FLAC\r\n================================================================================","torrent":{"xt":"urn:btih:ecd7373af5ef354f07cd61c3d3cd9e585e5bf8dc","amp;dn":"+The+Kinks+1964+The+Kinks+%5BVinyl+24-96+FLAC%5D","amp;tr":["udp%3A%2F%2Ftracker.leechers-paradise.org%3A6969","udp%3A%2F%2Fzer0day.ch%3A1337","udp%3A%2F%2Fopen.demonii.com%3A1337","udp%3A%2F%2Ftracker.coppersurfer.tk%3A6969","udp%3A%2F%2Fexodus.desync.com%3A6969"],"infoHash":"ecd7373af5ef354f07cd61c3d3cd9e585e5bf8dc","infoHashBuffer":{"type":"Buffer","data":[236,215,55,58,245,239,53,79,7,205,97,195,211,205,158,88,94,91,248,220]},"announce":[],"urlList":[]}}